      <svg
                    className="w-32 fill-black dark:fill-white"
                    xmlns="http://www.w3.org/2000/svg"
                    version="1.1"
                    width="100%"
                    height="512"
                  >
                    <path
                      d="M0 0 C0.99 0.33 1.98 0.66 3 1 C3.36424536 10.86319304 2.28265929 20.39276396 0.875 30.125 C0.76495636 30.90134796 0.65491272 31.67769592 0.54153442 32.47756958 C-0.9324676 42.74162297 -2.9281441 52.26451746 -6.5859375 61.9921875 C-13.76008889 81.34414875 -14.92609272 104.13005361 -15.7890625 124.57421875 C-15.98656632 127.78182708 -16.40851346 130.84378902 -17 134 C-15.68 134 -14.36 134 -13 134 C-13.03480469 132.86949219 -13.06960937 131.73898437 -13.10546875 130.57421875 C-13.31995903 120.08188517 -12.76464053 109.80998587 -11.625 99.375 C-11.43587036 97.58775513 -11.43587036 97.58775513 -11.24291992 95.7644043 C-11.11377197 94.65363525 -10.98462402 93.54286621 -10.8515625 92.3984375 C-10.73635254 91.40505371 -10.62114258 90.41166992 -10.50244141 89.38818359 C-10 87 -10 87 -8 85 C-7.34 85.33 -6.68 85.66 -6 86 C-6 102.5 -6 119 -6 136 C-5.34 136 -4.68 136 -4 136 C-3.505 132.04 -3.505 132.04 -3 128 C29.01 128 61.02 128 94 128 C94.16121214 166.08636734 94.16121214 166.08636734 94.1953125 182.04492188 C94.21904816 193.06444748 94.24695336 204.08385075 94.30175781 215.10327148 C94.3416524 223.12862806 94.36743918 231.15388541 94.37635398 239.1793384 C94.3815643 243.42798837 94.39379208 247.67635449 94.42292023 251.92491341 C94.45013087 255.92632282 94.45843368 259.92733223 94.45243073 263.92882538 C94.45352845 265.39494693 94.46144894 266.86108228 94.4768219 268.32712364 C94.56846829 277.52023012 94.3907139 283.29746956 87.96484375 290.1796875 C87.29582031 290.73914063 86.62679687 291.29859375 85.9375 291.875 C85.26589844 292.44992187 84.59429687 293.02484375 83.90234375 293.6171875 C78.58770218 297.48039719 71.23736302 296.49390884 65 296 C58.74578962 294.21000186 54.11803077 288.64768485 50.93617439 283.16787338 C49.898148 280.76414411 49.75325331 279.1401166 49.75949097 276.53277588 C49.75536697 275.19929863 49.75536697 275.19929863 49.75115967 273.83888245 C49.7619455 272.38771278 49.7619455 272.38771278 49.77294922 270.90722656 C49.77265717 269.88251755 49.77236511 268.85780853 49.77206421 267.80204773 C49.77345761 264.4148207 49.78901954 261.02781361 49.8046875 257.640625 C49.80841759 255.29221721 49.81126458 252.94380786 49.81326294 250.59539795 C49.82089972 244.41399846 49.84054869 238.23269293 49.8626709 232.05133057 C49.8831283 225.74386872 49.89226444 219.4363917 49.90234375 213.12890625 C49.92379446 200.75256288 49.95793103 188.37628925 50 176 C47.36 176 44.72 176 42 176 C42.01110306 177.26818573 42.02220612 178.53637146 42.03364563 179.84298706 C42.13518719 191.81873462 42.21004505 203.79439435 42.25906086 215.77047539 C42.28510798 221.92691931 42.32041762 228.08301454 42.37719727 234.23925781 C42.43168997 240.1850335 42.46145726 246.13047465 42.47438622 252.07648087 C42.48359504 254.3402139 42.50157771 256.6039295 42.52865028 258.86751938 C42.56516898 262.04863199 42.56993569 265.22837808 42.56762695 268.40966797 C42.59459152 269.80042793 42.59459152 269.80042793 42.62210083 271.21928406 C42.56905977 278.01331924 40.8503949 283.35962424 37 289 C30.46894291 295.1372957 25.17958379 296.37213426 16.296875 296.2734375 C9.07777685 295.67469713 4.80832003 292.37740517 0.2265625 286.9765625 C-2.59428903 282.43085909 -3.2543412 277.89546832 -3.31884766 272.62744141 C-3.33871735 271.38660797 -3.35858704 270.14577454 -3.37905884 268.86734009 C-3.39093233 267.52874937 -3.40259536 266.19015676 -3.4140625 264.8515625 C-3.43279091 263.47007105 -3.45236556 262.08859084 -3.4727478 260.7071228 C-3.52389861 257.0872055 -3.56361497 253.46725118 -3.60089111 249.84716797 C-3.64103827 246.14671805 -3.69208152 242.44641985 -3.7421875 238.74609375 C-3.8387446 231.49750023 -3.92321334 224.24883279 -4 217 C-5.36874268 217.60920288 -5.36874268 217.60920288 -6.76513672 218.23071289 C-15.27339066 222.01698772 -23.78368974 225.79862394 -32.29570007 229.57644653 C-37.34787267 231.81954707 -42.39700711 234.06930482 -47.44354248 236.32505798 C-50.56809756 237.72063908 -53.69462768 239.11175442 -56.82159424 240.50192261 C-58.31348119 241.16639439 -59.80449371 241.83283301 -61.2946167 242.50125122 C-63.37256708 243.43302061 -65.45344976 244.35790947 -67.53515625 245.28125 C-68.714729 245.80783203 -69.89430176 246.33441406 -71.10961914 246.87695312 C-74 248 -74 248 -77 248 C-84.98542207 230.81620793 -92.82320539 213.57306041 -100.53857422 196.26660156 C-101.88175753 193.2642974 -103.2366737 190.26770548 -104.59765625 187.2734375 C-104.97760742 186.43296875 -105.35755859 185.5925 -105.74902344 184.7265625 C-106.43416165 183.21158287 -107.12330985 181.69840714 -107.81738281 180.1875 C-109.12928001 177.27281293 -110 175.236211 -110 172 C-93.17259014 164.27458851 -76.3423995 156.55471558 -59.4375 149 C-58.30401123 148.49049805 -57.17052246 147.98099609 -56.00268555 147.45605469 C-54.96926025 146.99618164 -53.93583496 146.53630859 -52.87109375 146.0625 C-51.97318115 145.66160156 -51.07526855 145.26070312 -50.15014648 144.84765625 C-48 144 -48 144 -46 144 C-45.98541748 143.24307861 -45.97083496 142.48615723 -45.95581055 141.70629883 C-43.79294423 39.99044068 -43.79294423 39.99044068 -11.6796875 8.7421875 C-8.02828817 5.38000792 -4.46179257 2.24170838 0 0 Z M-8.8125 147.875 C-13.68253072 150.85312809 -13.68253072 150.85312809 -16.1953125 152.015625 C-19.09107867 153.59513382 -20.29113441 156.24376518 -22 159 C-22.99004796 160.34073965 -23.98811523 161.67566356 -25 163 C-17.79583321 178.66057814 -17.79583321 178.66057814 -9.27734375 193.625 C-7.94157921 196.10862337 -7.40180956 198.22205736 -7 201 C-9.65426391 200.64890877 -10.72801392 200.34026146 -12.42871094 198.21264648 C-12.85958008 197.43993408 -13.29044922 196.66722168 -13.734375 195.87109375 C-14.22188232 195.00790527 -14.70938965 194.1447168 -15.21166992 193.25537109 C-15.71931885 192.32547363 -16.22696777 191.39557617 -16.75 190.4375 C-17.28149658 189.49471191 -17.81299316 188.55192383 -18.3605957 187.58056641 C-20.8204394 183.17199601 -23.16710449 178.75382716 -25.24609375 174.15234375 C-28.12340624 166.92042661 -28.12340624 166.92042661 -33.34765625 161.52734375 C-35.70641441 160.77454903 -35.70641441 160.77454903 -38.01953125 160.41796875 C-40 160 -40 160 -42.4375 157.625 C-43.92247935 155.1302347 -45.05920517 152.74398493 -46 150 C-55.14112967 152.7026856 -63.62137841 156.81622845 -72.25 160.8125 C-73.78495931 161.51930805 -75.32011438 162.22569115 -76.85546875 162.93164062 C-80.54564797 164.62961493 -84.23343484 166.33270089 -87.92016602 168.03814697 C-91.14896986 169.53135979 -94.37923831 171.02139146 -97.609375 172.51171875 C-99.40625977 173.34112468 -101.20313895 174.17054269 -103 175 C-100.33192133 183.99203614 -96.31119862 192.32413744 -92.375 200.8125 C-91.29058237 203.16446165 -90.20776742 205.51715713 -89.12495422 207.86985779 C-88.41188511 209.41875246 -87.69825663 210.96738974 -86.98405457 212.51576233 C-83.76942363 219.48679261 -80.61248764 226.48296582 -77.47607422 233.48950195 C-75.79123696 237.2697163 -75.79123696 237.2697163 -74 241 C-69.11726764 240.33403564 -65.01792184 238.35395651 -60.58984375 236.30859375 C-59.76175705 235.93144226 -58.93367035 235.55429077 -58.08049011 235.16571045 C-55.36402764 233.92758771 -52.65082354 232.68248453 -49.9375 231.4375 C-46.13263219 229.70066031 -42.32609298 227.96749845 -38.51953125 226.234375 C-37.5568634 225.79550461 -36.59419556 225.35663422 -35.60235596 224.90446472 C-29.29531284 222.0325584 -22.97398984 219.19517246 -16.63671875 216.390625 C-15.8248259 216.03126358 -15.01293304 215.67190216 -14.17643738 215.301651 C-11.08389009 213.93414054 -7.99072001 212.56808978 -4.89523315 211.20724487 C3.86018253 207.35784816 12.49360588 203.38033889 21 199 C18.41022137 192.39267021 15.66721262 185.87950598 12.7421875 179.4140625 C12.35306183 178.54985687 11.96393616 177.68565125 11.5630188 176.79525757 C10.74888795 174.98822439 9.93376402 173.18163831 9.11767578 171.37548828 C7.86913804 168.61202537 6.62377215 165.8471499 5.37890625 163.08203125 C4.58351642 161.31762579 3.78794982 159.5533 2.9921875 157.7890625 C2.43590164 156.55465927 2.43590164 156.55465927 1.86837769 155.2953186 C1.34741013 154.14294205 1.34741013 154.14294205 0.81591797 152.96728516 C0.51265594 152.29573395 0.20939392 151.62418274 -0.10305786 150.93228149 C-1.03046597 148.9343672 -2.00558699 146.96530845 -3 145 C-5.06654775 145 -7.12172282 146.84023447 -8.8125 147.875 Z "
                      transform="translate(236,216)"
                    />
                    <path
                      d="M0 0 C2.97911702 1.41862715 5.67451369 3.07649626 8.4375 4.875 C20.04382403 11.81837274 32.49859751 14.0401639 45.6875 10.8125 C53.26952908 8.46594501 59.92646098 5.12454855 66 0 C66.66 0 67.32 0 68 0 C68.12004395 0.89380371 68.24008789 1.78760742 68.36376953 2.70849609 C71.42466811 25.20595664 74.79492744 47.38478233 82 69 C82 80.88 82 92.76 82 105 C49.99 105 17.98 105 -15 105 C-15 70 -15 70 -10 54 C-8.88022436 49.28868592 -7.82312253 44.61791472 -6.875 39.875 C-6.49661987 38.02189209 -6.49661987 38.02189209 -6.1105957 36.13134766 C-4.0459927 25.77562476 -2.48979668 15.38946083 -1.29370117 4.89990234 C-1 3 -1 3 0 0 Z "
                      transform="translate(248,231)"
                    />
                    <path
                      d="M0 0 C0.81855469 0.00499512 1.63710938 0.00999023 2.48046875 0.01513672 C23.08635677 0.5932818 41.93832258 12.52160402 55.8984375 27.10546875 C58.62663084 30.30926668 61.17595068 33.62456075 63.6875 37 C64.37803467 37.92558716 64.37803467 37.92558716 65.08251953 38.86987305 C71.15625382 47.25419491 74.88202761 54.9779624 73.9375 65.5 C72.55221113 69.85376503 70.00248608 71.19755624 66.125 73.25 C63.07660212 74.68741973 60.79126342 75.52350231 57.4375 76.0625 C56.2 76.2790625 56.2 76.2790625 54.9375 76.5 C54.65390625 77.09941406 54.3703125 77.69882813 54.078125 78.31640625 C49.6386386 86.81528603 33.58535029 91.61738324 24.9375 94.5 C24.999375 95.593125 25.06125 96.68625 25.125 97.8125 C24.9375 101.5 24.9375 101.5 23.48828125 102.92578125 C21.45053844 104.99432118 21.35251755 106.53040054 20.9375 109.375 C20.21334472 113.36075063 19.62863188 116.34487987 16.9375 119.5 C11.83147596 122.87408121 7.88026593 124.05596335 1.875 124.75 C-3.59020543 125.54438302 -3.59020543 125.54438302 -8.2578125 128.359375 C-9.6491212 130.35528382 -10.85874412 132.38791552 -12.0625 134.5 C-16.31706808 138.16365584 -21.5835829 138.67121616 -27.0625 138.5 C-30.14150106 137.15293704 -31.70906195 135.85343805 -34.0625 133.5 C-33.7325 132.18 -33.4025 130.86 -33.0625 129.5 C-26.6275 128.51 -26.6275 128.51 -20.0625 127.5 C-19.0725 129.48 -19.0725 129.48 -18.0625 131.5 C-16.7425 129.52 -15.4225 127.54 -14.0625 125.5 C-14.91972656 125.19707031 -15.77695312 124.89414063 -16.66015625 124.58203125 C-23.17097657 122.1964432 -28.67425109 119.885784 -34.0625 115.5 C-33.6875 113.5625 -33.6875 113.5625 -33.0625 111.5 C-28.03350663 108.98550331 -20.25455745 110.87735333 -15.05078125 112.35546875 C-8.49310992 114.85408513 -8.49310992 114.85408513 -6.0625 118.5 C-0.71276422 119.31687582 4.45874121 119.00991683 9.5625 117.25 C12.0279993 115.43331631 13.03094939 114.40096197 13.9375 111.5 C13.9375 110.51 13.9375 109.52 13.9375 108.5 C13.01453125 108.65597656 12.0915625 108.81195313 11.140625 108.97265625 C-8.55164204 111.9109293 -31.87399477 111.74426918 -49.0625 100.5 C-51.0625 97.5 -51.0625 97.5 -50.6875 94.3125 C-50.48125 93.384375 -50.275 92.45625 -50.0625 91.5 C-48.5775 91.005 -48.5775 91.005 -47.0625 90.5 C-47.26817374 84.63829828 -48.15849003 81.49791544 -52.18359375 77.2109375 C-54.23691597 75.34117631 -56.39083646 73.71108144 -58.625 72.0625 C-63.91539959 68.08354854 -67.57443421 63.7944441 -68.5625 57.125 C-68.7275 56.25875 -68.8925 55.3925 -69.0625 54.5 C-70.71241582 53.79289322 -72.3832762 53.13437344 -74.0625 52.5 C-78.75733057 47.89523812 -81.21502222 44.5267075 -81.375 37.875 C-81.30491841 30.56023397 -79.39451514 26.27320719 -74.75 20.75 C-66.55476827 13.88887576 -56.30293029 10.37682907 -45.640625 10.39453125 C-44.61453125 10.37970703 -43.5884375 10.36488281 -42.53125 10.34960938 C-40.40117686 10.32505149 -38.27079084 10.31955591 -36.140625 10.33398438 C-29.38634205 10.19467729 -25.57944113 9.06822695 -20.19799805 5.00463867 C-14.16799239 0.75599058 -7.20229488 -0.05891139 0 0 Z M-18.0625 8.5 C-19.35495384 10.53991151 -19.35495384 10.53991151 -20.0625 12.5 C-19.0209375 12.71914062 -17.979375 12.93828125 -16.90625 13.1640625 C0.98174665 17.06364577 22.7662477 22.87950185 34.9375 37.5 C35.48643032 38.82460764 36.02597057 40.15312654 36.55859375 41.484375 C38.72719137 46.04197121 41.59907139 47.20111344 46.203125 48.90039062 C47.55664062 49.35188477 47.55664062 49.35188477 48.9375 49.8125 C50.73102977 50.44920307 52.52277447 51.09096188 54.3125 51.73828125 C55.10398437 52.00680908 55.89546875 52.27533691 56.7109375 52.55200195 C59.1077151 53.57247207 60.92183419 54.86255915 62.9375 56.5 C61.0625 60.375 61.0625 60.375 59.9375 61.5 C59.86601801 62.85243917 59.85350546 64.20834367 59.875 65.5625 C59.895625 66.861875 59.91625 68.16125 59.9375 69.5 C63.11984105 67.74545615 63.11984105 67.74545615 65.9375 65.5 C66.40325945 59.31012439 65.49311334 55.26681811 62.625 49.8125 C62.26889648 49.12333496 61.91279297 48.43416992 61.54589844 47.72412109 C51.1446669 28.45386334 31.99950185 13.11899128 11.3046875 6.15625 C1.56771862 3.45689229 -9.23902964 2.80517052 -18.0625 8.5 Z M-69.84765625 23.98046875 C-72.98369881 27.39080075 -74.44731804 30.96303307 -75.0625 35.5 C-74.26314108 40.36208006 -72.96338784 43.64101392 -69.375 47.0625 C-68.611875 47.536875 -67.84875 48.01125 -67.0625 48.5 C-66.464375 48.025625 -65.86625 47.55125 -65.25 47.0625 C-61.94446259 44.70140185 -59.34247458 44.37719761 -55.39453125 44.40234375 C-54.50185547 44.40556641 -53.60917969 44.40878906 -52.68945312 44.41210938 C-51.29629883 44.42467773 -51.29629883 44.42467773 -49.875 44.4375 C-48.93462891 44.44201172 -47.99425781 44.44652344 -47.02539062 44.45117188 C-44.70436288 44.46295374 -42.38346356 44.47940442 -40.0625 44.5 C-40.02382813 43.17548828 -40.02382813 43.17548828 -39.984375 41.82421875 C-39.52210888 32.0430878 -37.5234501 24.18184908 -33.0625 15.5 C-45.98247771 13.27241764 -59.52729746 15.42157164 -69.84765625 23.98046875 Z M-26.0625 16.5 C-26.85800392 17.89365 -27.64871838 19.29003431 -28.4375 20.6875 C-28.87835938 21.46480469 -29.31921875 22.24210937 -29.7734375 23.04296875 C-32.05194333 27.38593895 -33.34932058 31.16505874 -33.8125 36.0625 C-33.91046875 36.99191406 -34.0084375 37.92132813 -34.109375 38.87890625 C-34.05939754 41.67347934 -33.50567966 43.14095632 -32.0625 45.5 C-30.33 45.0359375 -30.33 45.0359375 -28.5625 44.5625 C-10.06957372 40.53235687 11.22359233 41.45316635 29.9375 43.5 C21.10603726 28.0449402 0.92246872 22.46831875 -15.19970703 17.89355469 C-18.89556624 16.90533853 -22.23342011 16.26068251 -26.0625 16.5 Z M-59.0625 48.5 C-59.7225 49.82 -60.3825 51.14 -61.0625 52.5 C-59.6507217 53.03394179 -58.23279756 53.55165104 -56.8125 54.0625 C-56.02359375 54.35253906 -55.2346875 54.64257812 -54.421875 54.94140625 C-51.81980931 55.55745823 -50.53667823 55.45402635 -48.0625 54.5 C-45.79105926 52.64567913 -45.79105926 52.64567913 -44.0625 50.5 C-44.0625 49.84 -44.0625 49.18 -44.0625 48.5 C-49.0125 48.5 -53.9625 48.5 -59.0625 48.5 Z M17.234375 53.41015625 C12.73117022 55.54688097 7.78545055 56.43345088 2.9375 57.5 C4.33718485 61.69905455 6.74996474 62.99344029 10.40234375 65.3203125 C15.30476246 67.60156127 19.27394711 66.45757748 24.17578125 64.6953125 C28.4613852 62.7993049 31.16948559 61.03053693 32.9375 56.5 C33.18946129 53.79046449 33.18946129 53.79046449 32.9375 51.5 C27.29576537 48.67913269 22.29040619 50.56866672 17.234375 53.41015625 Z M-11.0625 52.5 C-8.57432037 54.98817963 -7.55473071 55.19366397 -4.0625 55.5 C-1.23451975 55.05416359 1.49243092 54.3239735 4.25 53.5625 C4.99056641 53.36720703 5.73113281 53.17191406 6.49414062 52.97070312 C8.31116113 52.4900719 10.12470614 51.99633486 11.9375 51.5 C11.9375 51.17 11.9375 50.84 11.9375 50.5 C4.1058819 50.2299442 -3.33529225 51.26892281 -11.0625 52.5 Z M39.9375 52.5 C39.4425 53.675625 38.9475 54.85125 38.4375 56.0625 C35.06111324 62.74419169 30.02214035 67.04992042 22.9375 69.4375 C21.60974888 69.81205141 20.27804068 70.17417414 18.9375 70.5 C19.5975 71.49 20.2575 72.48 20.9375 73.5 C37.14919288 69.85785222 37.14919288 69.85785222 51.9375 62.5 C51.68731927 59.12256011 50.68030087 58.24864631 48.1875 55.8125 C45.17565307 53.66945507 43.54616922 52.81841199 39.9375 52.5 Z M-38.0625 53.5 C-39.0525 54.49 -40.0425 55.48 -41.0625 56.5 C-39.4125 56.5 -37.7625 56.5 -36.0625 56.5 C-36.7225 55.51 -37.3825 54.52 -38.0625 53.5 Z M-59.0625 58.5 C-57.8766763 61.87503669 -56.78676311 64.14722731 -54.0625 66.5 C-53.4025 64.19 -52.7425 61.88 -52.0625 59.5 C-54.3725 59.17 -56.6825 58.84 -59.0625 58.5 Z M-46.0625 60.5 C-47.8625988 65.40403962 -47.8625988 65.40403962 -47.1875 70.4375 C-46.81625 71.118125 -46.445 71.79875 -46.0625 72.5 C-42.4640804 67.38933209 -42.4640804 67.38933209 -41.0625 61.5 C-42.7125 61.17 -44.3625 60.84 -46.0625 60.5 Z M-14.0625 60.5 C-12.39197777 63.25999325 -11.0044141 65.14051719 -7.93359375 66.3125 C-3.94309506 67.25917514 -1.03559846 67.74610815 2.9375 66.5 C1.23849815 65.48422665 -0.47220451 64.4880102 -2.1875 63.5 C-3.13882813 62.943125 -4.09015625 62.38625 -5.0703125 61.8125 C-8.32765122 60.38369346 -10.5462829 60.24958691 -14.0625 60.5 Z M-33.0625 61.5 C-36.48028487 65.74633878 -37.62994475 69.09305933 -38.0625 74.5 C-34.04313984 76.50968008 -29.05275217 76.20520978 -24.625 76.5625 C-23.58150391 76.65337891 -22.53800781 76.74425781 -21.46289062 76.83789062 C-11.26612498 77.80052684 -11.26612498 77.80052684 -1.0625 77.5 C-0.4025 76.84 0.2575 76.18 0.9375 75.5 C0.22207031 75.26925781 -0.49335938 75.03851563 -1.23046875 74.80078125 C-23.21119177 67.60657307 -23.21119177 67.60657307 -31.0625 61.5 C-31.7225 61.5 -32.3825 61.5 -33.0625 61.5 Z M47.375 69.5 C46.54871094 69.87125 45.72242188 70.2425 44.87109375 70.625 C44.23300781 70.91375 43.59492188 71.2025 42.9375 71.5 C42.9375 71.83 42.9375 72.16 42.9375 72.5 C45.5775 72.5 48.2175 72.5 50.9375 72.5 C51.5975 70.85 52.2575 69.2 52.9375 67.5 C50.98007992 67.5 49.12486309 68.71132931 47.375 69.5 Z M24.9375 78.5 C25.2675 79.49 25.5975 80.48 25.9375 81.5 C26.78054688 81.40460938 27.62359375 81.30921875 28.4921875 81.2109375 C29.58789062 81.10007812 30.68359375 80.98921875 31.8125 80.875 C33.44832031 80.70097656 33.44832031 80.70097656 35.1171875 80.5234375 C36.04789063 80.51570313 36.97859375 80.50796875 37.9375 80.5 C38.5975 81.16 39.2575 81.82 39.9375 82.5 C41.2575 81.18 42.5775 79.86 43.9375 78.5 C37.6675 78.5 31.3975 78.5 24.9375 78.5 Z M3.9375 80.5 C6.74405613 83.30655613 8.55747321 83.48666573 12.5 83.625 C15.79716091 83.74284249 15.79716091 83.74284249 17.9375 82.5 C17.6075 81.51 17.2775 80.52 16.9375 79.5 C12.51278444 79.36172764 8.31323952 79.90667939 3.9375 80.5 Z M-34.0625 81.5 C-33.7325 82.16 -33.4025 82.82 -33.0625 83.5 C-26.4625 83.5 -19.8625 83.5 -13.0625 83.5 C-13.0625 83.17 -13.0625 82.84 -13.0625 82.5 C-20.08055857 81.39912807 -26.96815767 81.40266908 -34.0625 81.5 Z M25.9375 86.5 C25.9375 87.16 25.9375 87.82 25.9375 88.5 C28.2475 87.84 30.5575 87.18 32.9375 86.5 C32.9375 86.17 32.9375 85.84 32.9375 85.5 C29.30864676 85.34850702 29.30864676 85.34850702 25.9375 86.5 Z M-23.0625 89.5 C-16.14984269 94.10843821 -6.167369 93.77474132 1.9375 93.5 C-1.54480748 90.01769252 -5.58476554 89.38659987 -10.3671875 89.3046875 C-11.89074867 89.31782165 -13.41425194 89.34143691 -14.9375 89.375 C-15.72125 89.38402344 -16.505 89.39304687 -17.3125 89.40234375 C-19.22930055 89.42571937 -21.14594191 89.46158347 -23.0625 89.5 Z M-43.0625 93.5 C-43.0625 94.49 -43.0625 95.48 -43.0625 96.5 C-34.94193054 100.69286546 -27.04944249 102.94037284 -18.0625 104.5 C-17.3096875 104.63277344 -16.556875 104.76554687 -15.78125 104.90234375 C-6.331786 106.31589062 2.6557265 105.51075171 11.9375 103.5 C11.9375 102.84 11.9375 102.18 11.9375 101.5 C11.11507812 101.5721875 10.29265625 101.644375 9.4453125 101.71875 C-9.29246017 103.27662486 -26.01600106 102.28769396 -43.0625 93.5 Z M-12.0625 97.5 C-12.0625 97.83 -12.0625 98.16 -12.0625 98.5 C-6.4525 98.5 -0.8425 98.5 4.9375 98.5 C4.9375 98.17 4.9375 97.84 4.9375 97.5 C-0.6725 97.5 -6.2825 97.5 -12.0625 97.5 Z "
                      transform="translate(312.0625,-0.5)"
                    />
                    <path
                      d="M0 0 C11.01930916 6.90790305 18.14828993 16.08459427 21.51171875 28.64453125 C24.21007085 40.41915858 22.13525751 52.39359112 16.38671875 62.95703125 C9.86373914 73.29302608 0.53698838 79.90000481 -11.16015625 83.45703125 C-22.78441015 86.0562433 -34.92925069 84.77765633 -45.48828125 78.9921875 C-56.84542813 71.33942251 -64.75194537 61.17248393 -67.48828125 47.64453125 C-69.03651777 34.00941824 -66.80108687 22.02670366 -58.3984375 10.89453125 C-43.84075583 -6.2531674 -19.77245189 -10.77086469 0 0 Z "
                      transform="translate(304.48828125,156.35546875)"
                    />
                    <path
                      d="M0 0 C12.0669869 3.52754176 20.17244565 13.42776376 26.16894531 24.07568359 C44.8576275 59.11503365 48.14277164 101.20010912 48.24023438 140.25830078 C48.25013702 142.6582056 48.28140431 145.05731852 48.3125 147.45703125 C48.31901576 149.00520338 48.32427179 150.55338145 48.328125 152.1015625 C48.3404718 152.80785797 48.3528186 153.51415344 48.36553955 154.24185181 C48.34461865 158.90307037 47.44544356 162.04053703 45 166 C41.47905697 169.26331306 38.69606784 170.28814732 34 170.5 C28.31704384 170.26071764 25.05252684 168.19408042 21.1875 164.0625 C18.56536536 159.50826615 18.84071411 154.37656884 18.7890625 149.25390625 C18.76343989 147.69359111 18.73703985 146.13328859 18.70996094 144.57299805 C18.69670776 143.75616547 18.68345459 142.93933289 18.6697998 142.0977478 C18.14976246 112.66852266 16.5490586 82.6829842 6.9375 54.625 C1.33184537 38.2370403 -1.12330906 19.3372541 -1 2 C-0.67 1.34 -0.34 0.68 0 0 Z "
                      transform="translate(325,216)"
                    />
                    <path
                      d="M0 0 C0.06058594 1.05058594 0.12117188 2.10117188 0.18359375 3.18359375 C0.61546473 10.48282152 1.09263954 17.74111635 2 25 C1.3709375 25.3403125 0.741875 25.680625 0.09375 26.03125 C-15.48428732 34.85254824 -23.62273977 49.20398399 -31 65 C-31.33 65 -31.66 65 -32 65 C-33.07782494 45.23987606 -26.21088085 24.80881938 -13.5625 9.625 C-4.6623954 0 -4.6623954 0 0 0 Z "
                      transform="translate(234,189)"
                    />
                    <path
                      d="M0 0 C12.83734041 5.90744869 21.25692296 19.1637149 26.25683594 31.89355469 C30.00836086 42.52698341 31.60320628 53.7707377 32 65 C31.34 65 30.68 65 30 65 C29.49210937 63.94941406 28.98421875 62.89882812 28.4609375 61.81640625 C24.75343495 54.22317323 21.1005895 46.77730263 16 40 C15.55398438 39.39027344 15.10796875 38.78054687 14.6484375 38.15234375 C10.581132 32.98300295 5.47059676 29.56859926 0 26 C-0.99 25.34 -1.98 24.68 -3 24 C-2.86722656 23.35675781 -2.73445313 22.71351563 -2.59765625 22.05078125 C-1.16447603 14.71750143 -0.45034931 7.45446622 0 0 Z "
                      transform="translate(330,189)"
                    />
                    <path
                      d="M0 0 C0.66 0 1.32 0 2 0 C2.48640156 3.54071054 2.96269282 7.08271756 3.4375 10.625 C3.57220703 11.6046875 3.70691406 12.584375 3.84570312 13.59375 C5.76170402 27.9871226 6.22686091 42.37813127 6.5625 56.875 C6.60582153 58.64193442 6.64943945 60.4088616 6.69335938 62.17578125 C6.79898089 66.45044527 6.90062289 70.72518644 7 75 C2.375 78 2.375 78 -1 78 C-1.0231241 67.97772237 -1.04091543 57.95545103 -1.05181217 47.9331522 C-1.05704085 43.27988814 -1.06413823 38.62664226 -1.07543945 33.97338867 C-1.08626886 29.48655454 -1.09227695 24.99973796 -1.09487724 20.51289177 C-1.0967314 18.79719707 -1.10035182 17.08150338 -1.10573006 15.36581612 C-1.11294121 12.97115087 -1.11399091 10.57655904 -1.11352539 8.18188477 C-1.11712067 7.46547318 -1.12071594 6.74906158 -1.12442017 6.01094055 C-1.11405216 1.11405216 -1.11405216 1.11405216 0 0 Z "
                      transform="translate(335,301)"
                    />
                    <path
                      d="M0 0 C2.35473633 0.21899414 2.35473633 0.21899414 5 1 C6.3269043 2.93920898 6.3269043 2.93920898 7.32421875 5.49609375 C7.70835937 6.43936523 8.0925 7.38263672 8.48828125 8.35449219 C8.88402344 9.37188477 9.27976563 10.38927734 9.6875 11.4375 C12.90714706 19.2927517 16.3104137 26.86145712 20.5 34.25 C20.92112061 34.99306396 21.34224121 35.73612793 21.77612305 36.50170898 C23.43843642 39.39586973 25.14823837 42.22235755 27 45 C26.625 47.6875 26.625 47.6875 26 50 C24.234375 49.84765625 24.234375 49.84765625 22 49 C15.28933805 40.41430015 10.62312678 29.81994374 6 20 C5.69223633 19.34725098 5.38447266 18.69450195 5.06738281 18.02197266 C4.19428166 16.14692893 3.34243446 14.26399531 2.5 12.375 C1.77296875 10.74691406 1.77296875 10.74691406 1.03125 9.0859375 C-0.04604768 5.86220581 -0.20263558 3.37388236 0 0 Z "
                      transform="translate(188,375)"
                    />
                    <path
                      d="M0 0 C2.475 0.495 2.475 0.495 5 1 C5.13277344 1.62648438 5.26554688 2.25296875 5.40234375 2.8984375 C5.57894531 3.71570313 5.75554687 4.53296875 5.9375 5.375 C6.19853516 6.59316406 6.19853516 6.59316406 6.46484375 7.8359375 C6.92330693 10.029463 6.92330693 10.029463 8 12 C9.98 12 11.96 12 14 12 C13.67 11.13375 13.34 10.2675 13 9.375 C12.01268659 6.04281725 11.83579026 3.44840462 12 0 C13.32 0 14.64 0 16 0 C16.6708712 1.6232687 17.33657029 3.24867578 18 4.875 C18.556875 6.23238281 18.556875 6.23238281 19.125 7.6171875 C20 10 20 10 20 12 C23.63 11.67 27.26 11.34 31 11 C31 12.65 31 14.3 31 16 C25.41944944 18.3111371 20.07314168 18.4315645 14.125 18.625 C13.15046875 18.66367187 12.1759375 18.70234375 11.171875 18.7421875 C8.7814328 18.83593033 6.39098756 18.9216383 4 19 C3.51801537 17.75108386 3.03954323 16.50081192 2.5625 15.25 C2.29566406 14.55390625 2.02882812 13.8578125 1.75390625 13.140625 C0.1632243 8.62407728 -0.0926001 4.81520531 0 0 Z "
                      transform="translate(157,403)"
                    />
                  </svg>